<svg width="345" height="200" viewBox="0 0 345 200" fill="none" xmlns="http://www.w3.org/2000/svg">
<g clip-path="url(#clip0_3_33)">
<rect width="155" height="152" rx="76" fill="#FF4DA2"/>
<ellipse cx="63" cy="48" rx="5" ry="7" fill="black"/>
<ellipse cx="93" cy="48" rx="5" ry="7" fill="black"/>
<path d="M79.9618 75.5261C78.519 79.4904 69.7764 79.9478 60.4348 76.5477C51.0932 73.1476 44.69 67.1777 46.1329 63.2134C47.5758 59.2491 53.7057 65.9698 63.0473 69.3699C72.3889 72.7699 81.4047 71.5619 79.9618 75.5261Z" fill="black"/>
<rect y="81" width="345" height="119" rx="59.5" fill="#FF8F0B"/>
<circle cx="46" cy="130" r="5" fill="black"/>
<circle cx="73" cy="130" r="5" fill="black"/>
<circle cx="58" cy="167" r="15" fill="black"/>
<path d="M175.049 24.8132C199.056 -4.5493 243.944 -4.54925 267.951 24.8132L331.485 102.522C363.519 141.701 335.643 200.5 285.035 200.5H157.965C107.357 200.5 79.4814 141.701 111.515 102.522L175.049 24.8132Z" fill="#9944DC"/>
<ellipse cx="186" cy="81.5" rx="7" ry="9.5" fill="black"/>
<rect x="238" y="81.0007" width="34.5569" height="6" rx="3" transform="rotate(-10 238 81.0007)" fill="black"/>
<path d="M287.403 118.607C289.147 138.538 273.267 156.209 251.935 158.075C230.603 159.941 211.896 145.297 210.152 125.366C209.749 120.759 227.042 119.246 248.375 117.379C269.707 115.513 287 114 287.403 118.607Z" fill="black"/>
</g>
<defs>
<clipPath id="clip0_3_33">
<rect width="345" height="200" fill="white"/>
</clipPath>
</defs>
</svg>
